<svg xmlns="http://www.w3.org/2000/svg" xmlns:xlink="http://www.w3.org/1999/xlink" width="174" height="42" viewBox="0 0 174 42">
    <defs>
        <path id="prefix__a" d="M0 0.053L38.461 0.053 38.461 41.821 0 41.821z"/>
    </defs>
    <g fill="none" fill-rule="evenodd">
        <g fill-rule="nonzero">
            <path fill="#20272A" d="M.025 20.313V.43C.025.172.181.017.44.017h6.213c2.433 0 3.727 1.294 3.727 3.728v6.316c0 2.408-1.294 3.728-3.727 3.728H3.546v6.524c0 .259-.13.414-.414.414H.44c-.26 0-.415-.155-.415-.414zm3.521-9.941h2.278c.7 0 1.036-.388 1.036-1.036V4.47c0-.673-.337-1.036-1.036-1.036H3.546v6.938zM23.35 3.745v6.316c0 1.735-.647 2.874-1.89 3.417l1.787 6.783c.077.31-.078.466-.363.466h-2.692c-.26 0-.388-.13-.44-.362l-1.735-6.576h-1.786v6.524c0 .259-.155.414-.414.414h-2.692c-.26 0-.415-.155-.415-.414V.43c0-.259.156-.414.415-.414h6.497c2.434 0 3.728 1.294 3.728 3.728zm-7.119 6.627h2.563c.673 0 1.035-.362 1.035-1.036V4.47c0-.673-.362-1.036-1.035-1.036H16.23v6.938zM26.353.017h2.692c.26 0 .415.155.415.414v19.882c0 .259-.156.414-.415.414h-2.692c-.285 0-.414-.155-.414-.414V.43c0-.259.13-.414.414-.414zm16.516 0h3.418c.336 0 .517.181.517.518v19.674c0 .337-.18.518-.517.518h-2.408c-.337 0-.518-.181-.518-.518V8.56h-.181l-2.563 11.702c-.078.31-.259.466-.57.466H38.78c-.31 0-.492-.155-.57-.466L35.648 8.56h-.181v11.65c0 .336-.182.517-.518.517h-2.382c-.336 0-.518-.181-.518-.518V.535c0-.337.182-.518.518-.518h3.417c.31 0 .492.155.57.466l2.873 12.892L42.3.483c.077-.31.259-.466.57-.466zM59.722.43V3.02c0 .259-.103.44-.414.44h-6.472v5.177h4.945c.258 0 .414.156.414.44v2.563c0 .285-.156.44-.414.44h-4.945v5.23h6.472c.31 0 .414.13.414.414v2.589c0 .259-.103.414-.414.414h-9.527c-.233 0-.388-.155-.388-.414V.43c0-.259.155-.414.388-.414h9.527c.31 0 .414.155.414.414z" transform="translate(49.068 10.575)"/>
            <path fill="#03C4E8" d="M72.846 3.745v6.316c0 1.735-.647 2.874-1.89 3.417l1.787 6.783c.077.31-.078.466-.363.466h-2.692c-.259 0-.388-.13-.44-.362l-1.735-6.576h-1.786v6.524c0 .259-.155.414-.414.414H62.62c-.26 0-.415-.155-.415-.414V.43c0-.259.156-.414.415-.414h6.497c2.434 0 3.728 1.294 3.728 3.728zm-7.119 6.627h2.563c.673 0 1.035-.362 1.035-1.036V4.47c0-.673-.362-1.036-1.035-1.036h-2.563v6.938zM85.764.432V3.02c0 .259-.103.44-.414.44h-6.472v5.177h4.945c.258 0 .414.156.414.44v2.563c0 .285-.156.44-.414.44h-4.945v5.23h6.472c.31 0 .414.13.414.414v2.589c0 .259-.103.414-.414.414h-9.527c-.233 0-.388-.155-.388-.414V.43c0-.259.155-.414.388-.414h9.527c.31 0 .414.155.414.414zm14.29 20.295H97.31c-.233 0-.362-.13-.414-.362l-.725-3.78h-4.608l-.699 3.78c-.052.233-.181.362-.414.362h-2.77c-.285 0-.414-.155-.337-.44L91.641.379c.051-.259.207-.362.44-.362h3.598c.233 0 .388.103.44.362l4.297 19.908c.052.285-.051.44-.362.44zm-4.53-7.145l-1.657-9.035-1.657 9.035h3.314zm17.086-9.837V6.54c0 .258-.156.414-.415.414h-2.588c-.285 0-.415-.156-.415-.414V4.47c0-.673-.362-1.036-1.035-1.036h-1.346c-.7 0-1.036.363-1.036 1.036v11.804c0 .7.363 1.036 1.036 1.036h1.346c.673 0 1.035-.337 1.035-1.036v-2.07c0-.26.13-.415.415-.415h2.588c.26 0 .415.155.415.414V17c0 2.434-1.32 3.728-3.728 3.728h-2.9c-2.433 0-3.753-1.294-3.753-3.728V3.745c0-2.434 1.32-3.728 3.753-3.728h2.9c2.407 0 3.728 1.294 3.728 3.728zm1.708-3.728h9.527c.285 0 .414.155.414.414V3.02c0 .259-.13.414-.414.414h-3.003v16.879c0 .285-.13.414-.414.414h-2.693c-.259 0-.414-.13-.414-.414V3.434h-3.003c-.259 0-.414-.155-.414-.414V.43c0-.259.155-.414.414-.414z" transform="translate(49.068 10.575)"/>
        </g>
        <mask id="prefix__b" fill="#fff">
            <use xlink:href="#prefix__a"/>
        </mask>
        <path fill="#03C4E8" fill-rule="nonzero" d="M36.58 30.91c-.817 1.398-2.28 2.233-3.915 2.233h-5.003l6.416-10.981 2.502 4.281c.817 1.399.817 3.069 0 4.467zm-9.77 1.188l-.07.12-.147.253-.784 1.341-.135.231-1.628 2.787-.491.84-.346.592-.013.003-.008.013c-.828 1.418-2.338 1.826-3.995 1.826-1.654 0-3.108-.406-3.936-1.82l-.026-.006-.841-1.439-.21-.36-9.067-15.516 1.645-2.814v.001l2.9-4.962h-.001l.329-.563h.002l2.276-3.894 13.967-.005 7.117 12.185-6.599 11.293.062-.106zm-3.716 6.354l.09-.145-.09.145zm-.094.143l.065-.098-.065.098zm-.1.14l.065-.09-.065.09zm-.11.142l.074-.095-.074.095zm-.253.29c.077-.082.152-.166.223-.253-.071.087-.146.171-.223.253zm-.12.12l.094-.094-.093.093zm-.125.117l.093-.086-.093.086zm-.139.12c.037-.03.072-.06.108-.092-.036.031-.071.062-.108.092zm-.292.223c.094-.065.185-.135.274-.208-.089.073-.18.143-.274.208zm-.14.094l.129-.086c-.043.03-.086.058-.129.086zm-.147.091l.124-.076-.124.076zm-.163.093l.14-.08-.14.08zm-.321.156c.107-.047.213-.099.316-.154-.103.055-.209.107-.316.154zm-4.066-.154c.104.055.21.107.317.154-.108-.047-.213-.099-.317-.154zm-.145-.082c.046.027.093.054.141.08-.048-.026-.095-.053-.141-.08zm-.146-.089c.04.026.082.051.124.076l-.124-.076zm-.152-.101c.042.03.085.058.128.086l-.128-.086zm-.285-.216c.089.073.18.143.274.208-.094-.065-.185-.135-.274-.208zm-.126-.107c.035.031.07.062.107.092-.036-.03-.072-.06-.107-.092zm-.124-.114l.092.086-.092-.086zm-.126-.125c.03.032.061.063.093.093-.032-.03-.063-.061-.093-.093zm-.25-.28c.072.088.146.172.224.253-.078-.08-.152-.165-.224-.252zm-.104-.13l.075.094-.075-.095zm-.1-.138c.02.03.043.06.065.09l-.066-.09zm-.1-.148c.02.033.042.066.064.098l-.064-.098zm-.119-.19c.03.05.059.098.09.145-.031-.047-.06-.096-.09-.145zm-9.493-5.164c-1.62 0-3.07-.827-3.879-2.212-.81-1.386-.81-3.04 0-4.426l2.508-4.29 6.386 10.928H5.754zM1.88 15.431c-.817-1.398-.817-3.068 0-4.467.817-1.398 2.28-2.233 3.915-2.233h5.003L4.383 19.712 1.88 15.431zM15.278 3.567c.828-1.417 2.312-2.263 3.968-2.263 1.656 0 3.14.846 3.967 2.263L25.5 7.48H12.992l2.286-3.913zm17.43 5.164c1.618 0 3.068.827 3.878 2.213.81 1.385.81 3.04 0 4.425l-2.508 4.291-6.386-10.93h5.015zm2.101 12.18l2.873-4.917c1.039-1.777 1.039-3.899 0-5.676-1.038-1.777-2.898-2.838-4.975-2.838h-5.745L24.31 2.942c-1.057-1.81-2.95-2.89-5.064-2.89s-4.007 1.081-5.064 2.89L11.53 7.48H5.796c-2.092 0-3.966 1.069-5.012 2.859-1.045 1.79-1.045 3.927 0 5.717l2.868 4.907L.779 25.88c-1.039 1.777-1.039 3.899 0 5.676 1.038 1.777 2.898 2.838 4.975 2.838h5.745l2.652 4.538c1.057 1.81 2.95 2.89 5.064 2.89s4.007-1.08 5.064-2.89l2.652-4.538h5.734c2.092 0 3.966-1.068 5.012-2.859 1.046-1.79 1.046-3.927 0-5.717l-2.868-4.907z" mask="url(#prefix__b)"/>
        <g>
            <path fill="#03C4E8" fill-rule="nonzero" d="M20.322 14.233L18.171 13.759 19.844 16.131 19.844 23.485 25.146 18.74 25.582 10.675 22.952 11.624z" transform="translate(5.71 8.671)"/>
            <path fill="#03C4E8" fill-rule="nonzero" d="M3.825 14.233L1.674 13.759 3.347 16.131 3.347 23.485 8.649 18.74 9.085 10.675 6.455 11.624z" transform="translate(5.71 8.671) matrix(-1 0 0 1 10.759 0)"/>
            <path fill="#03C4E8" d="M17.214 13.759l1.913 2.846v4.226l-3.33 2.38-.004.953 3.334-2.384v.948l-3.33 2.382-.004.951 3.334-2.383v.948l-3.33 2.381-.004.952 3.334-2.383v1.704l-2.235 4.234H9.928L8.129 27.28v-1.655l3.265 2.334-.004-.952-3.261-2.331v-.95l3.265 2.335-.004-.951-3.261-2.332v-.95l3.265 2.336-.004-.952-3.261-2.331v-4.276l1.913-2.846 1.195.711h4.782l1.195-.711z" transform="translate(5.71 8.671)"/>
            <path fill="#03C4E8" fill-rule="nonzero" d="M19.844 27.992L22.952 24.908 22.952 21.824 19.844 24.434z" transform="translate(5.71 8.671)"/>
            <path fill="#03C4E8" fill-rule="nonzero" d="M4.304 27.992L7.412 24.908 7.412 21.824 4.304 24.434z" transform="translate(5.71 8.671) matrix(-1 0 0 1 11.715 0)"/>
            <path fill="#03C4E8" d="M15.062 0v5.93l.957-.474V0h.717l1.913 4.507-2.87 9.015h-1.673V0h.956zm-3.825 5.456l.956.474V0h.957v13.522h-1.435L8.607 4.507 10.52 0h.717v5.456z" transform="translate(5.71 8.671)"/>
            <path fill="#03C4E8" fill-rule="nonzero" d="M11.715 13.522L1.435 9.726 0 3.796 8.846 4.507 11.954 13.522z" transform="translate(5.71 8.671)"/>
            <path fill="#03C4E8" fill-rule="nonzero" d="M27.256 13.522L16.975 9.726 15.541 3.796 24.626 4.507 27.495 13.522z" transform="translate(5.71 8.671) matrix(-1 0 0 1 43.036 0)"/>
            <path fill="#03C4E8" fill-rule="nonzero" d="M19.127 3.796L23.711 3.321 20.801 0 17.453 0z" transform="translate(5.71 8.671)"/>
            <path fill="#03C4E8" fill-rule="nonzero" d="M5.218 3.796L9.803 3.321 6.892 0 3.545 0z" transform="translate(5.71 8.671) matrix(-1 0 0 1 13.347 0)"/>
        </g>
    </g>
</svg>
