<svg xmlns="http://www.w3.org/2000/svg" width="486" height="492" viewBox="0 0 486 492">
    <g fill="none" fill-rule="evenodd" opacity=".05">
        <path fill="#FFF" fill-rule="nonzero" d="M110.913 415.775L48.524 401.916 97.048 471.212 97.048 686.029 263.417 547.437 263.417 311.831 187.165 339.55z" transform="translate(-24 -211) matrix(-1 0 0 1 311.942 0)"/>
        <path fill="#FFF" d="M499.107 401.916l55.456 83.155v123.73l-96.625 69.022-.005 27.722 96.63-69.024v27.717l-96.625 69.021-.005 27.723 96.63-69.024v27.717l-96.625 69.021-.005 27.722 96.63-69.023v49.508l-41.592 62.366-48.525 48.507h-138.64l-48.525-48.507-41.592-62.366v-48.069l94.614 67.584-.005-27.722-94.609-67.58v-27.719l94.614 67.585-.005-27.723-94.609-67.58V637.96l94.614 67.585-.005-27.722-94.609-67.582v-125.17l55.456-83.155 34.66 20.789h138.641l34.66-20.789z" transform="translate(-24 -211)"/>
        <path fill="#FFF" fill-rule="nonzero" d="M124.777 817.691L214.893 727.607 214.893 637.522 124.777 713.748z" transform="translate(-24 -211) matrix(-1 0 0 1 339.67 0)"/>
        <path fill="#FFF" d="M436.718 0v173.24l27.728-13.86V0h20.796L540.7 131.662l-83.185 263.325H408.99V0h27.728zM325.806 159.38l27.728 13.86V0h27.728v394.987H339.67l-90.117-263.325L305.01 0h20.796v159.38z" transform="translate(-24 -211)"/>
        <path fill="#FFF" fill-rule="nonzero" d="M339.67 394.987L41.592 284.113 0 110.873 256.485 131.662 346.602 394.987z" transform="translate(-24 -211)"/>
        <path fill="#FFF" fill-rule="nonzero" d="M790.252 394.987L492.174 284.113 450.582 110.873 714 131.662 797.184 394.987z" transform="translate(-24 -211) matrix(-1 0 0 1 1247.766 0)"/>
    </g>
</svg>
