<?xml version="1.0" encoding="UTF-8"?>
<svg width="174px" height="42px" viewBox="0 0 174 42" version="1.1" xmlns="http://www.w3.org/2000/svg" xmlns:xlink="http://www.w3.org/1999/xlink">
    <!-- Generator: Sketch 63.1 (92452) - https://sketch.com -->
    <title>primereact-logo</title>
    <desc>Created with Sketch.</desc>
    <defs>
        <polygon id="path-1" points="2.81793569e-06 0.0529031271 38.4610418 0.0529031271 38.4610418 41.8213085 2.81793569e-06 41.8213085"></polygon>
    </defs>
    <g id="PrimeReact" stroke="none" stroke-width="1" fill="none" fill-rule="evenodd">
        <g id="PrimeReact---Landing" transform="translate(-135.000000, -51.000000)">
            <g id="topbar" transform="translate(0.000000, 42.000000)">
                <g id="primereact-logo" transform="translate(135.000000, 9.000000)">
                    <g id="text-primereact" transform="translate(49.068002, 10.575000)" fill-rule="nonzero">
                        <path d="M0.0253800009,20.3127992 L0.0253800009,0.431121616 C0.0253800009,0.172245606 0.180705607,0.0169200006 0.439581616,0.0169200006 L6.65260585,0.0169200006 C9.08604034,0.0169200006 10.3804204,1.31130005 10.3804204,3.74473454 L10.3804204,10.0613092 C10.3804204,12.4688561 9.08604034,13.7891237 6.65260585,13.7891237 L3.54609373,13.7891237 L3.54609373,20.3127992 C3.54609373,20.5716752 3.41665573,20.7270008 3.13189212,20.7270008 L0.439581616,20.7270008 C0.180705607,20.7270008 0.0253800009,20.5716752 0.0253800009,20.3127992 Z M3.54609373,10.3719604 L5.82420262,10.3719604 C6.52316784,10.3719604 6.85970666,9.98364637 6.85970666,9.33645635 L6.85970666,4.46958737 C6.85970666,3.79650974 6.52316784,3.43408333 5.82420262,3.43408333 L3.54609373,3.43408333 L3.54609373,10.3719604 Z M23.3501085,3.74473454 L23.3501085,10.0613092 C23.3501085,11.7957784 22.7029184,12.9348329 21.4603136,13.4784725 L23.2465581,20.261024 C23.3242209,20.5716752 23.1688953,20.7270008 22.8841317,20.7270008 L20.1918212,20.7270008 C19.9329451,20.7270008 19.8035071,20.5975628 19.7517319,20.3645744 L18.0172627,13.7891237 L16.2310182,13.7891237 L16.2310182,20.3127992 C16.2310182,20.5716752 16.0756926,20.7270008 15.8168166,20.7270008 L13.1245061,20.7270008 C12.8656301,20.7270008 12.7103045,20.5716752 12.7103045,20.3127992 L12.7103045,0.431121616 C12.7103045,0.172245606 12.8656301,0.0169200006 13.1245061,0.0169200006 L19.6222939,0.0169200006 C22.0557284,0.0169200006 23.3501085,1.31130005 23.3501085,3.74473454 Z M16.2310182,10.3719604 L18.7938907,10.3719604 C19.4669683,10.3719604 19.8293947,10.009534 19.8293947,9.33645635 L19.8293947,4.46958737 C19.8293947,3.79650974 19.4669683,3.43408333 18.7938907,3.43408333 L16.2310182,3.43408333 L16.2310182,10.3719604 Z M26.3530702,0.0169200006 L29.0453807,0.0169200006 C29.3042567,0.0169200006 29.4595823,0.172245606 29.4595823,0.431121616 L29.4595823,20.3127992 C29.4595823,20.5716752 29.3042567,20.7270008 29.0453807,20.7270008 L26.3530702,20.7270008 C26.0683066,20.7270008 25.9388686,20.5716752 25.9388686,20.3127992 L25.9388686,0.431121616 C25.9388686,0.172245606 26.0683066,0.0169200006 26.3530702,0.0169200006 Z M42.8693596,0.0169200006 L46.2865229,0.0169200006 C46.6230617,0.0169200006 46.8042749,0.198133207 46.8042749,0.53467202 L46.8042749,20.2092488 C46.8042749,20.5457876 46.6230617,20.7270008 46.2865229,20.7270008 L43.878976,20.7270008 C43.5424372,20.7270008 43.361224,20.5457876 43.361224,20.2092488 L43.361224,8.55982832 L43.1800108,8.55982832 L40.6171383,20.261024 C40.5394755,20.5716752 40.3582623,20.7270008 40.0476111,20.7270008 L38.7791186,20.7270008 C38.4684674,20.7270008 38.2872542,20.5716752 38.2095914,20.261024 L35.6467189,8.55982832 L35.4655057,8.55982832 L35.4655057,20.2092488 C35.4655057,20.5457876 35.2842925,20.7270008 34.9477537,20.7270008 L32.5660944,20.7270008 C32.2295556,20.7270008 32.0483424,20.5457876 32.0483424,20.2092488 L32.0483424,0.53467202 C32.0483424,0.198133207 32.2295556,0.0169200006 32.5660944,0.0169200006 L35.9832577,0.0169200006 C36.293909,0.0169200006 36.4751222,0.172245606 36.552785,0.482896818 L39.4263087,13.3749221 L42.2998324,0.482896818 C42.3774952,0.172245606 42.5587084,0.0169200006 42.8693596,0.0169200006 Z M59.7221878,0.431121616 L59.7221878,3.01988171 C59.7221878,3.27875772 59.6186374,3.45997093 59.3079862,3.45997093 L52.836086,3.45997093 L52.836086,8.63749112 L57.7806177,8.63749112 C58.0394938,8.63749112 58.1948194,8.79281673 58.1948194,9.07758034 L58.1948194,11.6404528 C58.1948194,11.9252164 58.0394938,12.080542 57.7806177,12.080542 L52.836086,12.080542 L52.836086,17.3098374 L59.3079862,17.3098374 C59.6186374,17.3098374 59.7221878,17.4392754 59.7221878,17.7240391 L59.7221878,20.3127992 C59.7221878,20.5716752 59.6186374,20.7270008 59.3079862,20.7270008 L49.7813491,20.7270008 C49.5483606,20.7270008 49.393035,20.5716752 49.393035,20.3127992 L49.393035,0.431121616 C49.393035,0.172245606 49.5483606,0.0169200006 49.7813491,0.0169200006 L59.3079862,0.0169200006 C59.6186374,0.0169200006 59.7221878,0.172245606 59.7221878,0.431121616 Z" id="PRIME" fill="#FFFFFF"></path>
                        <path d="M72.8461863,3.74473454 L72.8461863,10.0613092 C72.8461863,11.7957784 72.1989963,12.9348329 70.9563914,13.4784725 L72.7426359,20.261024 C72.8202987,20.5716752 72.6649731,20.7270008 72.3802095,20.7270008 L69.687899,20.7270008 C69.429023,20.7270008 69.299585,20.5975628 69.2478098,20.3645744 L67.5133405,13.7891237 L65.727096,13.7891237 L65.727096,20.3127992 C65.727096,20.5716752 65.5717704,20.7270008 65.3128944,20.7270008 L62.6205839,20.7270008 C62.3617079,20.7270008 62.2063823,20.5716752 62.2063823,20.3127992 L62.2063823,0.431121616 C62.2063823,0.172245606 62.3617079,0.0169200006 62.6205839,0.0169200006 L69.1183718,0.0169200006 C71.5518063,0.0169200006 72.8461863,1.31130005 72.8461863,3.74473454 Z M65.727096,10.3719604 L68.2899685,10.3719604 C68.9630462,10.3719604 69.3254726,10.009534 69.3254726,9.33645635 L69.3254726,4.46958737 C69.3254726,3.79650974 68.9630462,3.43408333 68.2899685,3.43408333 L65.727096,3.43408333 L65.727096,10.3719604 Z M85.7640992,0.431121616 L85.7640992,3.01988171 C85.7640992,3.27875772 85.6605488,3.45997093 85.3498976,3.45997093 L78.8779973,3.45997093 L78.8779973,8.63749112 L83.8225291,8.63749112 C84.0814051,8.63749112 84.2367307,8.79281673 84.2367307,9.07758034 L84.2367307,11.6404528 C84.2367307,11.9252164 84.0814051,12.080542 83.8225291,12.080542 L78.8779973,12.080542 L78.8779973,17.3098374 L85.3498976,17.3098374 C85.6605488,17.3098374 85.7640992,17.4392754 85.7640992,17.7240391 L85.7640992,20.3127992 C85.7640992,20.5716752 85.6605488,20.7270008 85.3498976,20.7270008 L75.8232604,20.7270008 C75.590272,20.7270008 75.4349464,20.5716752 75.4349464,20.3127992 L75.4349464,0.431121616 C75.4349464,0.172245606 75.590272,0.0169200006 75.8232604,0.0169200006 L85.3498976,0.0169200006 C85.6605488,0.0169200006 85.7640992,0.172245606 85.7640992,0.431121616 Z M100.054055,20.7270008 L97.3099692,20.7270008 C97.0769808,20.7270008 96.9475428,20.5975628 96.8957676,20.3645744 L96.1709148,16.5849846 L91.5629218,16.5849846 L90.8639566,20.3645744 C90.8121814,20.5975628 90.6827434,20.7270008 90.449755,20.7270008 L87.6797817,20.7270008 C87.3950181,20.7270008 87.26558,20.5716752 87.3432428,20.2869116 L91.6405846,0.379346414 C91.6923598,0.120470404 91.8476854,0.0169200006 92.0806738,0.0169200006 L95.6790504,0.0169200006 C95.9120388,0.0169200006 96.0673644,0.120470404 96.1191396,0.379346414 L100.416481,20.2869116 C100.468257,20.5716752 100.364706,20.7270008 100.054055,20.7270008 Z M95.5237248,13.5820229 L93.8669183,4.54725017 L92.2101118,13.5820229 L95.5237248,13.5820229 Z M112.609541,3.74473454 L112.609541,6.54059544 C112.609541,6.79947145 112.454216,6.95479706 112.19534,6.95479706 L109.60658,6.95479706 C109.321816,6.95479706 109.192378,6.79947145 109.192378,6.54059544 L109.192378,4.46958737 C109.192378,3.79650974 108.829952,3.43408333 108.156874,3.43408333 L106.810719,3.43408333 C106.111754,3.43408333 105.775215,3.79650974 105.775215,4.46958737 L105.775215,16.2743334 C105.775215,16.9732986 106.137641,17.3098374 106.810719,17.3098374 L108.156874,17.3098374 C108.829952,17.3098374 109.192378,16.9732986 109.192378,16.2743334 L109.192378,14.2033253 C109.192378,13.9444493 109.321816,13.7891237 109.60658,13.7891237 L112.19534,13.7891237 C112.454216,13.7891237 112.609541,13.9444493 112.609541,14.2033253 L112.609541,16.9991862 C112.609541,19.4326207 111.289274,20.7270008 108.881727,20.7270008 L105.982316,20.7270008 C103.548881,20.7270008 102.228613,19.4326207 102.228613,16.9991862 L102.228613,3.74473454 C102.228613,1.31130005 103.548881,0.0169200006 105.982316,0.0169200006 L108.881727,0.0169200006 C111.289274,0.0169200006 112.609541,1.31130005 112.609541,3.74473454 Z M114.318123,0.0169200006 L123.84476,0.0169200006 C124.129524,0.0169200006 124.258962,0.172245606 124.258962,0.431121616 L124.258962,3.01988171 C124.258962,3.27875772 124.129524,3.43408333 123.84476,3.43408333 L120.841798,3.43408333 L120.841798,20.3127992 C120.841798,20.5975628 120.71236,20.7270008 120.427597,20.7270008 L117.735286,20.7270008 C117.47641,20.7270008 117.321085,20.5975628 117.321085,20.3127992 L117.321085,3.43408333 L114.318123,3.43408333 C114.059247,3.43408333 113.903921,3.27875772 113.903921,3.01988171 L113.903921,0.431121616 C113.903921,0.172245606 114.059247,0.0169200006 114.318123,0.0169200006 Z" id="REACT" fill="#03C4E8"></path>
                    </g>
                    <g id="icon-primereact">
                        <g id="base">
                            <mask id="mask-2" fill="white">
                                <use xlink:href="#path-1"></use>
                            </mask>
                            <g id="path-1"></g>
                            <path d="M36.58026,30.9100107 C35.7630586,32.3084353 34.2995355,33.143358 32.6652456,33.143358 L27.6619444,33.143358 L34.0784403,22.1618383 L36.5801472,26.4432605 C37.3973486,27.8417407 37.3973486,29.5115305 36.58026,30.9100107 Z M26.8107024,32.0984377 L26.7403667,32.2188341 L26.5929323,32.4711542 L25.8093208,33.812332 L25.674398,34.0432123 L24.0460257,36.830149 L23.5550286,37.6704178 L23.2092115,38.2622088 L23.1961926,38.265216 L23.1884152,38.2784696 C22.3602802,39.6958836 20.8495849,40.104073 19.193315,40.104073 C17.5393558,40.104073 16.0854138,39.6981668 15.2566589,38.2844839 L15.2305084,38.2779127 L14.3899745,36.8394489 L14.1794184,36.4791507 L5.11338665,20.9632761 L6.75782118,18.1490525 L6.75804663,18.1499992 L9.65860417,13.1884099 L9.65657528,13.1880201 L9.98582285,12.6246296 L9.9879645,12.6250194 L12.264462,8.73084807 L26.2311657,8.72600325 L33.3476369,20.9110413 L26.7493277,32.20352 L26.8107024,32.0984377 Z M23.0941834,38.4524373 C23.1245607,38.4046018 23.1542618,38.3562094 23.183061,38.3069816 C23.1542618,38.3562094 23.1245607,38.4046018 23.0941834,38.4524373 Z M23.000008,38.5948303 C23.0220442,38.5627543 23.0436296,38.5301771 23.0648769,38.4973772 C23.0436296,38.5301771 23.0220442,38.5627543 23.000008,38.5948303 Z M22.8996894,38.7351071 C22.9218384,38.7052586 22.9436492,38.675076 22.9651783,38.6446706 C22.9436492,38.675076 22.9218384,38.7052586 22.8996894,38.7351071 Z M22.7896209,38.8773887 C22.8148696,38.8460366 22.8398365,38.8144061 22.8643525,38.7822744 C22.8398365,38.8144061 22.8148696,38.8460366 22.7896209,38.8773887 Z M22.5365139,39.1665739 C22.6139508,39.0854929 22.688626,39.001182 22.7603707,38.9139197 C22.688626,39.001182 22.6139508,39.0854929 22.5365139,39.1665739 Z M22.4178788,39.2860793 C22.4492706,39.2555625 22.4801552,39.2244889 22.5107016,39.1929141 C22.4801552,39.2244889 22.4492706,39.2555625 22.4178788,39.2860793 Z M22.2923116,39.4035242 C22.3235907,39.375402 22.3544189,39.3467229 22.384909,39.3176541 C22.3544189,39.3467229 22.3235907,39.375402 22.2923116,39.4035242 Z M22.153331,39.5238649 C22.1895697,39.4937937 22.2253574,39.4631655 22.2607507,39.4318691 C22.2253574,39.4631655 22.1895697,39.4937937 22.153331,39.5238649 Z M21.8606602,39.7474502 C21.9545538,39.6817947 22.0459676,39.6123523 22.1348453,39.5394017 C22.0459676,39.6123523 21.9544975,39.6817389 21.8606602,39.7474502 Z M21.7210033,39.841228 C21.7643995,39.8131615 21.8074576,39.784371 21.849952,39.754801 C21.8074576,39.784371 21.7643995,39.8131615 21.7210033,39.841228 Z M21.573738,39.9322771 C21.6155562,39.9074961 21.6568107,39.8821026 21.6977835,39.8560408 C21.6568107,39.8821026 21.6155562,39.9074961 21.573738,39.9322771 Z M21.4105231,40.0246626 C21.4581463,39.9990464 21.5052622,39.9724834 21.5518708,39.9451965 C21.5052622,39.9724834 21.4581463,39.9990464 21.4105231,40.0246626 Z M21.0897293,40.1810888 C21.1973745,40.1338658 21.3029344,40.0824106 21.4062399,40.0270015 C21.3029344,40.0824106 21.1973745,40.1338101 21.0897293,40.1810888 Z M17.0241808,40.0270015 C17.1275991,40.0824106 17.2331589,40.1338658 17.3408041,40.1811445 C17.2331589,40.1338101 17.1275991,40.0824106 17.0241808,40.0270015 Z M16.8786063,39.9451965 C16.9253276,39.9724834 16.9724435,39.9991021 17.020123,40.0247183 C16.9724435,39.9991021 16.9253276,39.9724834 16.8786063,39.9451965 Z M16.7328626,39.8560965 C16.7737227,39.8821026 16.8149773,39.9074961 16.8566827,39.9322771 C16.8149773,39.9074961 16.7737227,39.8821026 16.7328626,39.8560965 Z M16.5805814,39.754801 C16.6230759,39.784371 16.6660212,39.8131615 16.7094738,39.841228 C16.6660212,39.8131615 16.6230759,39.784371 16.5805814,39.754801 Z M16.2957445,39.5394574 C16.3845658,39.6123523 16.4759796,39.6817947 16.5698169,39.7474502 C16.4759796,39.6817389 16.3845658,39.6123523 16.2957445,39.5394574 Z M16.1697827,39.4318691 C16.2050633,39.4631099 16.2408511,39.493738 16.2770334,39.5238092 C16.2408511,39.493738 16.2050633,39.4631099 16.1697827,39.4318691 Z M16.0456245,39.3176541 C16.0761145,39.3467786 16.1069428,39.375402 16.1381655,39.4035242 C16.1069428,39.375402 16.0761145,39.3467786 16.0456245,39.3176541 Z M15.9200573,39.1931925 C15.950491,39.224656 15.9812628,39.2556182 16.0125419,39.2860236 C15.9812628,39.2556182 15.950491,39.224656 15.9200573,39.1931925 Z M15.6701064,38.9139197 C15.741851,39.001182 15.8164699,39.0853815 15.8938504,39.1664625 C15.8164699,39.0853815 15.741851,39.001182 15.6701064,38.9139197 Z M15.5662373,38.7823301 C15.5906969,38.8144061 15.6156075,38.8460366 15.6407999,38.8772773 C15.6156075,38.8460366 15.5906969,38.8144061 15.5662373,38.7823301 Z M15.4654115,38.644782 C15.4868842,38.6751874 15.508695,38.7052586 15.5307876,38.7350514 C15.508695,38.7052586 15.4868842,38.6751874 15.4654115,38.644782 Z M15.3656566,38.4974329 C15.3869038,38.5301771 15.4084329,38.5626986 15.4304691,38.5947189 C15.4084329,38.5626986 15.3869038,38.5301771 15.3656566,38.4974329 Z M15.2474724,38.3069816 C15.2762717,38.3562094 15.3060291,38.4046018 15.33635,38.4524373 C15.3060291,38.4046018 15.2762717,38.3562094 15.2474724,38.3069816 Z M5.75384707,33.143358 C4.13471758,33.143358 2.68477695,32.3162315 1.87518403,30.9306708 C1.06564746,29.5451657 1.06564746,27.8908014 1.87518403,26.5052407 L4.38252685,22.2141845 L10.7685327,33.143358 L5.75384707,33.143358 Z M1.88087626,15.4310012 C1.06373127,14.032521 1.06373127,12.3626756 1.88087626,10.964251 C2.69796489,9.56577079 4.16148796,8.73084807 5.79577793,8.73084807 L10.7991355,8.73084807 L4.38252685,19.7124235 L1.88087626,15.4310012 Z M15.2780751,3.56728012 C16.1062101,2.14992183 17.5895151,1.30380592 19.2458413,1.30380592 C20.9021112,1.30380592 22.3854162,2.14992183 23.2134947,3.56728012 L25.4997423,7.47999538 L12.9918276,7.47999538 L15.2780751,3.56728012 Z M32.7071764,8.73084807 C34.3263623,8.73084807 35.7763593,9.55803022 36.5858958,10.943591 C37.3954888,12.3290403 37.3954324,13.9834046 36.5858958,15.3689654 L34.0784967,19.6601329 L27.6924908,8.73084807 L32.7071764,8.73084807 Z M34.8094128,20.9109299 L37.6821855,15.9943917 C38.7206512,14.2172364 38.7206512,12.0952642 37.6822419,10.3181089 C36.6438326,8.54100937 34.783995,7.47999538 32.7071764,7.47999538 L26.9615747,7.47999538 L24.3098972,2.94185379 C23.2528895,1.13290097 21.359913,0.0528975583 19.2458413,0.0528975583 C17.131995,0.0528975583 15.2386241,1.13301235 14.1817291,2.94185379 L11.5300516,7.47999538 L5.79577793,7.47999538 C3.70385521,7.47999538 1.83043521,8.54869424 0.784473844,10.3388247 C-0.261487524,12.1288994 -0.261487524,14.2663528 0.784473844,16.0564276 L3.65161068,20.9632761 L0.77883797,25.87987 C-0.259571328,27.6569696 -0.259571328,29.7789418 0.77883797,31.5561528 C1.81724727,33.3332523 3.67708482,34.3942107 5.75384707,34.3942107 L11.4994489,34.3942107 L14.1511263,38.9324079 C15.208134,40.7413607 17.1012795,41.8213085 19.2152949,41.8213085 C21.3293103,41.8213085 23.2223994,40.7413607 24.2792944,38.9324079 L26.9310282,34.3942107 L32.6652456,34.3942107 C34.7571683,34.3942107 36.6306446,33.3255118 37.676606,31.5353814 C38.722511,29.7453623 38.722511,27.6079646 37.6764933,25.8178898 L34.8094128,20.9109299 Z" id="bg-base" fill="#03C4E8" fill-rule="nonzero" mask="url(#mask-2)"></path>
                        </g>
                        <g id="prime-logo-2018" transform="translate(5.710500, 8.671500)">
                            <polygon id="chick-right" fill="#03C4E8" fill-rule="nonzero" points="20.3223921 14.2331971 18.1706094 13.7587572 19.8442181 16.1309567 19.8442181 23.4847752 25.1458767 18.7403762 25.5823053 10.6748978 22.9523487 11.6237776"></polygon>
                            <polygon id="chick-left" fill="#03C4E8" fill-rule="nonzero" transform="translate(5.379457, 17.079837) scale(-1, 1) translate(-5.379457, -17.079837) " points="3.82539145 14.2331971 1.67360876 13.7587572 3.34721752 16.1309567 3.34721752 23.4847752 8.6488761 18.7403762 9.08530469 10.6748978 6.45534807 11.6237776"></polygon>
                            <path d="M17.2142615,13.7587572 L19.1269572,16.6053966 L19.1269568,20.8307572 L15.7964819,23.21193 L15.7928588,24.1636405 L19.1269568,21.7797572 L19.1269568,22.7277572 L15.7964819,25.1096896 L15.7928588,26.0614001 L19.1269568,23.6777572 L19.1269568,24.6257572 L15.7964819,27.0074492 L15.7928588,27.9591597 L19.1269568,25.5757572 L19.1269572,27.2802944 L16.8916839,31.5135012 L9.92780161,31.5135012 L8.12895682,27.2802944 L8.12895682,25.6247572 L11.3935322,27.9591597 L11.3899091,27.0074492 L8.12895682,24.6757572 L8.12895682,23.7267572 L11.3935322,26.0614001 L11.3899091,25.1096896 L8.12895682,22.7777572 L8.12895682,21.8287572 L11.3935322,24.1636405 L11.3899091,23.21193 L8.12895682,20.8807572 L8.12895682,16.6053966 L10.0416525,13.7587572 L11.2370874,14.470417 L16.0188267,14.470417 L17.2142615,13.7587572 Z" id="mask" fill="#03C4E8"></path>
                            <g id="mask-effect-right" transform="translate(15.301566, 20.638136)"></g>
                            <g id="mask-effect-left" transform="translate(7.650783, 20.638136)"></g>
                            <polygon id="bottom-chick-right" fill="#03C4E8" fill-rule="nonzero" points="19.8442181 27.9919543 22.9523487 24.9080949 22.9523487 21.8242355 19.8442181 24.433655"></polygon>
                            <polygon id="bottom-chick-left" fill="#03C4E8" fill-rule="nonzero" transform="translate(5.857631, 24.908095) scale(-1, 1) translate(-5.857631, -24.908095) " points="4.30356538 27.9919543 7.41169593 24.9080949 7.41169593 21.8242355 4.30356538 24.433655"></polygon>
                            <path d="M15.0624788,4.04121181e-14 L15.0624788,5.93049879 L16.0188267,5.45605889 L16.0188267,4.04121181e-14 L16.7360876,0 L18.6487833,4.50717908 L15.7797397,13.5215372 L14.106131,13.5215372 L14.106131,0 L15.0624788,4.04121181e-14 Z M11.2370874,5.45605889 L12.1934352,5.93049879 L12.1934352,0 L13.1497831,0 L13.1497831,13.5215372 L11.7152613,13.5215372 L8.60713075,4.50717908 L10.5198265,0 L11.2370874,0 L11.2370874,5.45605889 Z" id="head" fill="#03C4E8"></path>
                            <polygon id="head-left" fill="#03C4E8" fill-rule="nonzero" points="11.7152613 13.5215372 1.43452179 9.72601801 0 3.79551923 8.84621772 4.50717908 11.9543483 13.5215372"></polygon>
                            <polygon id="head-right" fill="#03C4E8" fill-rule="nonzero" transform="translate(21.517827, 8.658528) scale(-1, 1) translate(-21.517827, -8.658528) " points="27.2559141 13.5215372 16.9751745 9.72601801 15.5406528 3.79551923 24.6259574 4.50717908 27.495001 13.5215372"></polygon>
                            <polygon id="ear-right" fill="#03C4E8" fill-rule="nonzero" points="19.1269572 3.79551923 23.7113549 3.32107932 20.800566 0 17.4533485 0"></polygon>
                            <polygon id="ear-left" fill="#03C4E8" fill-rule="nonzero" transform="translate(6.673562, 1.897760) scale(-1, 1) translate(-6.673562, -1.897760) " points="5.2181679 3.79551923 9.80256558 3.32107932 6.89177665 0 3.54455914 0"></polygon>
                        </g>
                    </g>
                </g>
            </g>
        </g>
    </g>
</svg>