<svg xmlns="http://www.w3.org/2000/svg" width="155" height="37" viewBox="0 0 155 37">
    <g fill="none" fill-rule="evenodd">
        <path fill="#41B883" fill-rule="nonzero" d="M23.999 16.934L21.458 16.37 23.434 19.192 23.434 27.941 30.21 22.297 30.21 12.701 27.104 13.83z"/>
        <path fill="#41B883" fill-rule="nonzero" d="M4.517 16.934L1.976 16.37 3.953 19.192 3.953 27.941 10.729 22.297 10.729 12.701 7.623 13.83z" transform="matrix(-1 0 0 1 12.705 0)"/>
        <path fill="#41B883" d="M9.599 19.757L11.858 16.37 13.27 17.216 18.917 17.216 20.328 16.37 22.587 19.757 22.587 32.457 20.893 34.997 18.917 36.973 13.27 36.973 11.293 34.997 9.599 32.457z"/>
        <path fill="#41B883" fill-rule="nonzero" d="M23.434 33.304L27.104 29.635 27.104 25.966 23.434 29.07z"/>
        <path fill="#41B883" fill-rule="nonzero" d="M5.082 33.304L8.752 29.635 8.752 25.966 5.082 29.07z" transform="matrix(-1 0 0 1 13.834 0)"/>
        <path fill="#455C71" d="M20.983 2.895l1.04 2.467-3.389 10.725h-1.976v-2.716l4.325-10.476zm-9.676-.248l4.221 10.905v2.535h-1.694l-3.67-10.725 1.143-2.715zM15.528 0v10.953l-1.6-4.133.471.236V0h1.13zm2.26 0v7.056l.582-.292-1.713 4.148V0h1.13zm1.976 0l.706 1.678-1.554 3.763V0h.848zM13.27 0v5.118L11.83 1.403 12.423 0h.847z"/>
        <path fill="#41B883" fill-rule="nonzero" d="M32.469 4.516l-1.694 7.056-12.14 4.515h-.283L21.74 5.362l10.729-.846zM0 4.516l10.446.846 3.67 10.725h-.282l-12.14-4.515L0 4.516z"/>
        <path fill="#455C71" fill-rule="nonzero" d="M22.587 4.516L28.516 3.951 24.563 0 20.611 0z"/>
        <path fill="#455C71" fill-rule="nonzero" d="M5.647 4.516L11.576 3.951 7.623 0 3.67 0z" transform="matrix(-1 0 0 1 15.246 0)"/>
        <path fill="#455C71" fill-rule="nonzero" d="M4.41 4.88L10.51 5.349 14.17 16.094 13.794 16.094 9.853 14.639zM27.964 4.88L21.677 5.349 18.205 16.094 18.674 16.084 22.334 14.733zM11.355 17.079L11.824 16.328 13.419 17.079 19.05 17.079 20.269 16.328 20.832 17.079 16.094 25.149z"/>
        <path fill="#41B883" fill-rule="nonzero" d="M21.163 0l-5.096 12.343L11.289 0h9.874z"/>
        <g font-family="Norwester-Regular, Norwester" font-size="29.325" font-style="condensed">
            <text fill="#41B883" transform="translate(39.097 .938)">
                <tspan x="71.664" y="29">VUE</tspan>
            </text>
            <text fill="#FFF" transform="translate(39.097 .938)">
                <tspan x="1.049" y="29">PRIME</tspan>
            </text>
        </g>
    </g>
</svg>
