<?xml version="1.0" encoding="UTF-8"?>
<svg width="155px" height="37px" viewBox="0 0 155 37" version="1.1" xmlns="http://www.w3.org/2000/svg" xmlns:xlink="http://www.w3.org/1999/xlink">
    <!-- Generator: Sketch 63.1 (92452) - https://sketch.com -->
    <title>logo-primevue-footer</title>
    <desc>Created with Sketch.</desc>
    <g id="PrimeVue" stroke="none" stroke-width="1" fill="none" fill-rule="evenodd">
        <g id="PrimeVue---Landing" transform="translate(-135.000000, -5810.000000)">
            <g id="footer" transform="translate(0.000000, 5771.000000)">
                <g id="logo-primevue-footer" transform="translate(135.000000, 39.000000)">
                    <g id="head">
                        <polygon id="chick-right" fill="#41B883" fill-rule="nonzero" points="23.9985586 16.9341791 21.4575347 16.3697065 23.4338866 19.1920697 23.4338866 27.9413956 30.2099502 22.2966692 30.2099502 12.7006344 27.1042544 13.8295796"></polygon>
                        <polygon id="chick-left" fill="#41B883" fill-rule="nonzero" transform="translate(6.352560, 20.321015) scale(-1, 1) translate(-6.352560, -20.321015) " points="4.51737573 16.9341791 1.97635188 16.3697065 3.95270376 19.1920697 3.95270376 27.9413956 10.7287674 22.2966692 10.7287674 12.7006344 7.62307154 13.8295796"></polygon>
                        <polygon id="mask" fill="#41B883" points="9.59942342 19.7565423 11.8581113 16.3697065 13.2697912 17.2164155 18.9165109 17.2164155 20.3281908 16.3697065 22.5868786 19.7565423 22.5868786 32.4571767 20.8928627 34.9973035 18.9165109 36.9729578 13.2697912 36.9729578 11.2934393 34.9973035 9.59942342 32.4571767"></polygon>
                        <polygon id="bottom-chick-right" fill="#41B883" fill-rule="nonzero" points="23.4338866 33.3038856 27.1042544 29.6348135 27.1042544 25.9657413 23.4338866 29.0703408"></polygon>
                        <polygon id="bottom-chick-left" fill="#41B883" fill-rule="nonzero" transform="translate(6.917232, 29.634813) scale(-1, 1) translate(-6.917232, -29.634813) " points="5.08204769 33.3038856 8.75241547 29.6348135 8.75241547 25.9657413 5.08204769 29.0703408"></polygon>
                        <path d="M20.9830954,2.895 L22.0222067,5.36249006 L18.6341749,16.0874702 L16.657823,16.0874702 L16.6570954,13.371 L20.9830954,2.895 Z M11.3070954,2.647 L15.5280954,13.552 L15.5284791,16.0874702 L13.8344632,16.0874702 L10.1640954,5.36249006 L11.3070954,2.647 Z M15.5284791,0 L15.5280954,10.953 L13.9280954,6.82 L14.3991351,7.05590797 L14.3991351,0 L15.5284791,0 Z M17.7871669,4.48530102e-14 L17.7871669,7.05590797 L18.3700954,6.764 L16.6570954,10.912 L16.657823,0 L17.7871669,4.48530102e-14 Z M19.7635188,0 L20.4700954,1.678 L18.9160954,5.441 L18.9165109,4.48530102e-14 L19.7635188,0 Z M13.2697912,0 L13.2690954,5.118 L11.8310954,1.403 L12.4227833,0 L13.2697912,0 Z" fill="#455C71"></path>
                        <path d="M32.468638,4.5157811 L30.7746221,11.5716891 L18.6341749,16.0874702 L18.3518389,16.0874702 L21.7398707,5.36249006 L32.468638,4.5157811 Z M0,4.5157811 L10.4464314,5.36249006 L14.1167992,16.0874702 L13.8344632,16.0874702 L1.6940159,11.5716891 L0,4.5157811 Z" id="head-right-2" fill="#41B883" fill-rule="nonzero"></path>
                        <polygon id="ear-right" fill="#455C71" fill-rule="nonzero" points="22.5868786 4.5157811 28.5159343 3.95130846 24.5632305 0 20.6105268 0"></polygon>
                        <polygon id="ear-left" fill="#455C71" fill-rule="nonzero" transform="translate(7.623072, 2.257891) scale(-1, 1) translate(-7.623072, -2.257891) " points="5.64671966 4.5157811 11.5757753 3.95130846 7.62307154 0 3.67036778 0"></polygon>
                        <polygon id="Path-2" fill="#455C71" fill-rule="nonzero" points="4.41047973 4.87967971 10.5100794 5.34887968 14.1698391 16.093559 13.7944792 16.093559 9.85319941 14.6390391"></polygon>
                        <polygon id="Path-3" fill="#455C71" fill-rule="nonzero" points="27.9643183 4.87967971 21.6770387 5.34887968 18.2049589 16.093559 18.6741589 16.084175 22.3339187 14.7328791"></polygon>
                        <polygon id="Path-4" fill="#455C71" fill-rule="nonzero" points="11.3546393 17.078879 11.8238393 16.328159 13.4191192 17.078879 19.0495189 17.078879 20.2694388 16.328159 20.8324787 17.078879 16.093559 25.1491185"></polygon>
                        <path d="M21.1633611,-8.04689643e-15 L16.0667473,12.3433614 L11.2886719,-8.04689643e-15 L21.1633611,-8.04689643e-15 Z" id="Path-6" fill="#41B883" fill-rule="nonzero"></path>
                    </g>
                    <g id="Group-2" transform="translate(41.096600, 5.938400)" fill-rule="nonzero">
                        <path d="M79.0772499,24 C79.4291499,24 79.6344249,23.82405 79.7223999,23.47215 L84.6783249,1.18515001 C84.7662999,0.774600013 84.5903499,0.540000013 84.1504749,0.540000013 L81.3645999,0.540000013 C81.0126999,0.540000013 80.8074249,0.715950013 80.7194499,1.06785001 L77.6109999,16.78605 L74.5318749,1.06785001 C74.4438999,0.715950013 74.2386249,0.540000013 73.8867249,0.540000013 L71.1008499,0.540000013 C70.6609749,0.540000013 70.4850249,0.774600013 70.5729999,1.18515001 L75.4995999,23.47215 C75.5875749,23.82405 75.7928499,24 76.1447499,24 L79.0772499,24 Z M94.5608499,24 C97.3173999,24 98.7836499,22.53375 98.7836499,19.7772 L98.7836499,1.12650001 C98.7836499,0.803925013 98.5197249,0.540000013 98.1971499,0.540000013 L95.4992499,0.540000013 C95.1766749,0.540000013 94.9127499,0.803925013 94.9127499,1.12650001 L94.9127499,18.9561 C94.9127499,19.747875 94.5021999,20.1291 93.7397499,20.1291 L92.2148499,20.1291 C91.4523999,20.1291 91.0418499,19.747875 91.0418499,18.9561 L91.0418499,1.12650001 C91.0418499,0.803925013 90.7779249,0.540000013 90.4553499,0.540000013 L87.6401499,0.540000013 C87.3175749,0.540000013 87.0536499,0.803925013 87.0536499,1.12650001 L87.0536499,19.7772 C87.0536499,22.53375 88.5198999,24 91.2764499,24 L94.5608499,24 Z M112.947625,24 C113.299525,24 113.416825,23.82405 113.416825,23.5308 L113.416825,20.5983 C113.416825,20.275725 113.299525,20.1291 112.947625,20.1291 L105.616375,20.1291 L105.616375,14.20545 L111.21745,14.20545 C111.5107,14.20545 111.68665,14.0295 111.68665,13.706925 L111.68665,10.80375 C111.68665,10.481175 111.5107,10.305225 111.21745,10.305225 L105.616375,10.305225 L105.616375,4.44022501 L112.947625,4.44022501 C113.299525,4.44022501 113.416825,4.23495001 113.416825,3.94170001 L113.416825,1.00920001 C113.416825,0.715950013 113.299525,0.540000013 112.947625,0.540000013 L102.156025,0.540000013 C101.8921,0.540000013 101.71615,0.715950013 101.71615,1.00920001 L101.71615,23.5308 C101.71615,23.82405 101.8921,24 102.156025,24 L112.947625,24 Z" id="VUE" fill="#41B883"></path>
                        <path d="M4.03457498,24 C4.35714998,24 4.50377498,23.82405 4.50377498,23.5308 L4.50377498,16.1409 L8.02277498,16.1409 C10.779325,16.1409 12.245575,14.645325 12.245575,11.9181 L12.245575,4.76280001 C12.245575,2.00625001 10.779325,0.540000013 8.02277498,0.540000013 L0.98477498,0.540000013 C0.69152498,0.540000013 0.51557498,0.715950013 0.51557498,1.00920001 L0.51557498,23.5308 C0.51557498,23.82405 0.69152498,24 0.98477498,24 L4.03457498,24 Z M7.08437498,12.27 L4.50377498,12.27 L4.50377498,4.41090001 L7.08437498,4.41090001 C7.87614998,4.41090001 8.25737498,4.82145001 8.25737498,5.58390001 L8.25737498,11.097 C8.25737498,11.830125 7.87614998,12.27 7.08437498,12.27 Z M18.403825,24 C18.697075,24 18.873025,23.82405 18.873025,23.5308 L18.873025,16.1409 L20.89645,16.1409 L22.861225,23.58945 C22.919875,23.853375 23.0665,24 23.35975,24 L26.40955,24 C26.732125,24 26.908075,23.82405 26.8201,23.47215 L24.796675,15.789 C26.204275,15.173175 26.9374,13.882875 26.9374,11.9181 L26.9374,4.76280001 C26.9374,2.00625001 25.47115,0.540000013 22.7146,0.540000013 L15.354025,0.540000013 C15.060775,0.540000013 14.884825,0.715950013 14.884825,1.00920001 L14.884825,23.5308 C14.884825,23.82405 15.060775,24 15.354025,24 L18.403825,24 Z M21.7762,12.27 L18.873025,12.27 L18.873025,4.41090001 L21.7762,4.41090001 C22.53865,4.41090001 22.9492,4.82145001 22.9492,5.58390001 L22.9492,11.097 C22.9492,11.85945 22.53865,12.27 21.7762,12.27 Z M33.3889,24 C33.68215,24 33.8581,23.82405 33.8581,23.5308 L33.8581,1.00920001 C33.8581,0.715950013 33.68215,0.540000013 33.3889,0.540000013 L30.3391,0.540000013 C30.016525,0.540000013 29.8699,0.715950013 29.8699,1.00920001 L29.8699,23.5308 C29.8699,23.82405 30.016525,24 30.3391,24 L33.3889,24 Z M40.075,24 C40.456225,24 40.6615,23.794725 40.6615,23.4135 L40.6615,10.21725 L40.866775,10.21725 L43.76995,23.47215 C43.857925,23.82405 44.0632,24 44.4151,24 L45.852025,24 C46.203925,24 46.4092,23.82405 46.497175,23.47215 L49.40035,10.21725 L49.605625,10.21725 L49.605625,23.4135 C49.605625,23.794725 49.8109,24 50.192125,24 L52.91935,24 C53.300575,24 53.50585,23.794725 53.50585,23.4135 L53.50585,1.12650001 C53.50585,0.745275013 53.300575,0.540000013 52.91935,0.540000013 L49.04845,0.540000013 C48.69655,0.540000013 48.491275,0.715950013 48.4033,1.06785001 L45.148225,15.6717 L41.89315,1.06785001 C41.805175,0.715950013 41.5999,0.540000013 41.248,0.540000013 L37.3771,0.540000013 C36.995875,0.540000013 36.7906,0.745275013 36.7906,1.12650001 L36.7906,23.4135 C36.7906,23.794725 36.995875,24 37.3771,24 L40.075,24 Z M67.6698249,24 C68.0217249,24 68.1390249,23.82405 68.1390249,23.5308 L68.1390249,20.5983 C68.1390249,20.275725 68.0217249,20.1291 67.6698249,20.1291 L60.3385749,20.1291 L60.3385749,14.20545 L65.9396499,14.20545 C66.2328999,14.20545 66.4088499,14.0295 66.4088499,13.706925 L66.4088499,10.80375 C66.4088499,10.481175 66.2328999,10.305225 65.9396499,10.305225 L60.3385749,10.305225 L60.3385749,4.44022501 L67.6698249,4.44022501 C68.0217249,4.44022501 68.1390249,4.23495001 68.1390249,3.94170001 L68.1390249,1.00920001 C68.1390249,0.715950013 68.0217249,0.540000013 67.6698249,0.540000013 L56.8782249,0.540000013 C56.6142999,0.540000013 56.4383499,0.715950013 56.4383499,1.00920001 L56.4383499,23.5308 C56.4383499,23.82405 56.6142999,24 56.8782249,24 L67.6698249,24 Z" id="PRIME" fill="#FFFFFF"></path>
                    </g>
                </g>
            </g>
        </g>
    </g>
</svg>