<?xml version="1.0" encoding="UTF-8"?>
<svg width="48px" height="48px" viewBox="0 0 48 48" version="1.1" xmlns="http://www.w3.org/2000/svg" xmlns:xlink="http://www.w3.org/1999/xlink">
    <title>icon-react</title>
    <defs>
        <polygon id="path-1" points="2.17423124e-06 0.0415605548 29.6753397 0.0415605548 29.6753397 32.8547078 2.17423124e-06 32.8547078"></polygon>
    </defs>
    <g id="Page-1" stroke="none" stroke-width="1" fill="none" fill-rule="evenodd">
        <g id="icon-react" transform="translate(1.000000, 1.000000)">
            <circle id="Oval" stroke="#03C4E8" stroke-width="2" fill="#FFFFFF" fill-rule="nonzero" cx="23" cy="23" r="23"></circle>
            <g id="primereact-icon" transform="translate(8.000000, 6.000000)">
                <g id="base" transform="translate(0.000000, 0.002187)">
                    <mask id="mask-2" fill="white">
                        <use xlink:href="#path-1"></use>
                    </mask>
                    <g id="path-1"></g>
                    <path d="M28.2241871,24.2828215 C27.59366,25.3814201 26.4644513,26.0373331 25.2034842,26.0373331 L21.3430931,26.0373331 L26.2938611,17.4102807 L28.2241001,20.7737545 C28.8546272,21.8723968 28.8546272,23.1841792 28.2241871,24.2828215 Z M20.6863013,25.2164466 L20.6320325,25.3110296 L20.5182767,25.5092516 L19.9136665,26.5628773 L19.8095643,26.7442563 L18.553163,28.9336663 L18.174325,29.5937792 L17.9075033,30.0586887 L17.8974584,30.0610511 L17.8914575,30.0714631 C17.2524944,31.1849797 16.0868891,31.5056522 14.8089629,31.5056522 C13.5328196,31.5056522 12.4110033,31.1867734 11.7715619,30.0761879 L11.751385,30.0710256 L11.1028553,28.9409722 L10.9403968,28.657923 L3.94532957,16.4686935 L5.21412395,14.257847 L5.21429789,14.2585907 L7.45227758,10.3607794 L7.45071215,10.3604732 L7.7047493,9.91787516 L7.70640173,9.91818139 L9.4628762,6.85893083 L20.2391489,6.85512475 L25.729996,16.427658 L20.6389466,25.298999 L20.6863013,25.2164466 Z M17.8187512,30.2081317 C17.8421895,30.1705522 17.8651058,30.1325352 17.8873265,30.093862 C17.8651058,30.1325352 17.8421895,30.1705522 17.8187512,30.2081317 Z M17.7460884,30.3199952 C17.7630909,30.2947964 17.7797455,30.2692038 17.7961392,30.2434363 C17.7797455,30.2692038 17.7630909,30.2947964 17.7460884,30.3199952 Z M17.6686858,30.4301963 C17.6857753,30.4067474 17.7026038,30.383036 17.7192149,30.3591496 C17.7026038,30.383036 17.6857753,30.4067474 17.6686858,30.4301963 Z M17.5837603,30.5419723 C17.6032414,30.5173422 17.6225051,30.4924934 17.6414209,30.4672508 C17.6225051,30.4924934 17.6032414,30.5173422 17.5837603,30.5419723 Z M17.3884709,30.7691554 C17.4482187,30.7054584 17.5058359,30.639224 17.5611918,30.5706709 C17.5058359,30.639224 17.4482187,30.7054584 17.3884709,30.7691554 Z M17.2969357,30.8630385 C17.3211567,30.8390646 17.3449862,30.8146533 17.3685549,30.7898482 C17.3449862,30.8146533 17.3211567,30.8390646 17.2969357,30.8630385 Z M17.200052,30.9553029 C17.2241859,30.9332102 17.247972,30.91068 17.2714972,30.8878436 C17.247972,30.91068 17.2241859,30.9332102 17.200052,30.9553029 Z M17.0928189,31.0498423 C17.1207795,31.0262184 17.1483923,31.002157 17.1757006,30.9775706 C17.1483923,31.002157 17.1207795,31.0262184 17.0928189,31.0498423 Z M16.8670033,31.2254903 C16.9394486,31.1739115 17.0099807,31.1193578 17.0785559,31.062048 C17.0099807,31.1193578 16.9394051,31.1738677 16.8670033,31.2254903 Z M16.7592484,31.2991619 C16.7927315,31.2771129 16.8259537,31.2544952 16.8587412,31.231265 C16.8259537,31.2544952 16.7927315,31.2771129 16.7592484,31.2991619 Z M16.645623,31.3706898 C16.6778886,31.3512219 16.7097194,31.3312729 16.7413327,31.3107988 C16.7097194,31.3312729 16.6778886,31.3512219 16.645623,31.3706898 Z M16.5196915,31.4432676 C16.556436,31.4231436 16.5927892,31.4022758 16.628751,31.3808393 C16.5927892,31.4022758 16.556436,31.4231436 16.5196915,31.4432676 Z M16.272177,31.5661556 C16.3552327,31.5290573 16.4366794,31.4886342 16.5163867,31.445105 C16.4366794,31.4886342 16.3552327,31.5290136 16.272177,31.5661556 Z M13.1353267,31.445105 C13.215121,31.4886342 13.2965677,31.5290573 13.3796233,31.5661994 C13.2965677,31.5290136 13.215121,31.4886342 13.1353267,31.445105 Z M13.0230059,31.3808393 C13.0590546,31.4022758 13.0954078,31.4231873 13.1321958,31.4433114 C13.0954078,31.4231873 13.0590546,31.4022758 13.0230059,31.3808393 Z M12.9105546,31.3108426 C12.942081,31.3312729 12.9739118,31.3512219 13.0060904,31.3706898 C12.9739118,31.3512219 12.942081,31.3312729 12.9105546,31.3108426 Z M12.7930592,31.231265 C12.8258466,31.2544952 12.8589819,31.2771129 12.8925085,31.2991619 C12.8589819,31.2771129 12.8258466,31.2544952 12.7930592,31.231265 Z M12.5732879,31.0620917 C12.6418197,31.1193578 12.7123517,31.1739115 12.7847536,31.2254903 C12.7123517,31.1738677 12.6418197,31.1193578 12.5732879,31.0620917 Z M12.4760998,30.9775706 C12.5033212,31.0021133 12.5309339,31.0261746 12.558851,31.0497985 C12.5309339,31.0261746 12.5033212,31.0021133 12.4760998,30.9775706 Z M12.3803032,30.8878436 C12.4038283,30.9107238 12.4276144,30.9332102 12.4517049,30.9553029 C12.4276144,30.9332102 12.4038283,30.9107238 12.3803032,30.8878436 Z M12.2834194,30.7900669 C12.3069011,30.8147845 12.3306437,30.8391084 12.3547777,30.8629948 C12.3306437,30.8391084 12.3069011,30.8147845 12.2834194,30.7900669 Z M12.0905651,30.5706709 C12.145921,30.639224 12.2034946,30.7053709 12.263199,30.7690679 C12.2034946,30.7053709 12.145921,30.639224 12.0905651,30.5706709 Z M12.0104229,30.4672946 C12.0292952,30.4924934 12.0485155,30.5173422 12.0679531,30.5418848 C12.0485155,30.5173422 12.0292952,30.4924934 12.0104229,30.4672946 Z M11.9326289,30.3592371 C11.9491966,30.3831235 11.9660251,30.4067474 11.9830711,30.4301525 C11.9660251,30.4067474 11.9491966,30.3831235 11.9326289,30.3592371 Z M11.8556611,30.24348 C11.8720548,30.2692038 11.888666,30.2947526 11.9056685,30.3199077 C11.888666,30.2947526 11.8720548,30.2692038 11.8556611,30.24348 Z M11.7644739,30.093862 C11.7866945,30.1325352 11.8096544,30.1705522 11.8330491,30.2081317 C11.8096544,30.1705522 11.7866945,30.1325352 11.7644739,30.093862 Z M4.43948885,26.0373331 C3.19021906,26.0373331 2.07149012,25.3875448 1.44683348,24.299052 C0.82222033,23.2106029 0.82222033,21.9109388 1.44683348,20.822446 L3.38142096,17.4514038 L8.30866378,26.0373331 L4.43948885,26.0373331 Z M1.45122543,12.1225532 C0.820741854,11.0239109 0.820741854,9.71208477 1.45122543,8.61348621 C2.08166552,7.51484388 3.21087425,6.85893083 4.47184139,6.85893083 L8.33227595,6.85893083 L3.38142096,15.486027 L1.45122543,12.1225532 Z M11.788086,2.8024457 C12.4270491,1.68897282 13.571521,1.02426643 14.8494906,1.02426643 C16.1274168,1.02426643 17.2718886,1.68897282 17.9108082,2.8024457 L19.6748055,5.87626431 L10.0240888,5.87626431 L11.788086,2.8024457 Z M25.2358367,6.85893083 C26.48515,6.85893083 27.6039224,7.50876291 28.2285355,8.59725572 C28.8531922,9.685661 28.8531487,10.9853252 28.2285355,12.073818 L26.2939046,15.4449477 L21.3666618,6.85893083 L25.2358367,6.85893083 Z M26.8578567,16.4275704 L29.0743985,12.5651512 C29.8756462,11.1690228 29.8756462,9.5020071 29.074442,8.1058787 C28.2732377,6.70979406 26.8382451,5.87626431 25.2358367,5.87626431 L20.8027097,5.87626431 L18.7567581,2.31111245 C17.9412039,0.890003968 16.4806424,0.04155618 14.8494906,0.04155618 C13.2185128,0.04155618 11.7576468,0.890091464 10.9421796,2.31111245 L8.89622803,5.87626431 L4.47184139,5.87626431 C2.8577791,5.87626431 1.41230669,6.71583127 0.605275538,8.12215295 C-0.201755613,9.52843087 -0.201755613,11.2076085 0.605275538,12.6138865 L2.81746885,16.4686935 L0.600927074,20.3311565 C-0.200277136,21.7272412 -0.200277136,23.3942568 0.600927074,24.790429 C1.40213129,26.1865136 2.8371239,27.0199997 4.43948885,27.0199997 L8.87261589,27.0199997 L10.9185675,30.5851953 C11.7341216,32.0063037 13.1948136,32.8547078 14.8259219,32.8547078 C16.4570302,32.8547078 17.9176787,32.0063037 18.7331459,30.5851953 L20.779141,27.0199997 L25.2034842,27.0199997 C26.8175464,27.0199997 28.2630623,26.1804327 29.0700935,24.774111 C29.8770812,23.3678768 29.8770812,21.6887429 29.0700065,20.282465 L26.8578567,16.4275704 Z" id="bg-base" fill="#03C4E8" fill-rule="nonzero" mask="url(#mask-2)"></path>
                </g>
                <g id="head" transform="translate(4.387500, 6.853846)" fill="#03C4E8">
                    <polygon id="chick-right" fill-rule="nonzero" points="15.7157602 11.1440394 14.0517385 10.7725715 15.3459776 12.6299114 15.3459776 18.3876651 19.4458687 14.6729853 19.7833687 8.35802959 17.7495645 9.10096555"></polygon>
                    <polygon id="chick-left" fill-rule="nonzero" transform="translate(4.160054, 13.372847) scale(-1, 1) translate(-4.160054, -13.372847) " points="2.95826074 11.1440394 1.29423907 10.7725715 2.58847815 12.6299114 2.58847815 18.3876651 6.68836928 14.6729853 7.02586926 8.35802959 4.992065 9.10096555"></polygon>
                    <polygon id="mask" points="6.28630408 13.0013794 7.76543445 10.7725715 8.68989093 11.3297734 12.3877169 11.3297734 13.3121733 10.7725715 14.7913037 13.0013794 14.7913037 21.3594089 13.0627168 24.6738451 7.67739097 24.6738451 6.28630408 21.3594089"></polygon>
                    <polygon id="bottom-chick-right" fill-rule="nonzero" points="15.3459776 21.9166109 17.7495645 19.502069 17.7495645 17.0875272 15.3459776 19.1306011"></polygon>
                    <polygon id="bottom-chick-left" fill-rule="nonzero" transform="translate(4.529837, 19.502069) scale(-1, 1) translate(-4.529837, -19.502069) " points="3.32804333 21.9166109 5.73163019 19.502069 5.73163019 17.0875272 3.32804333 19.1306011"></polygon>
                    <path d="M12.9423907,0 L14.4215211,3.52894583 L12.2028256,10.5868375 L10.9085865,10.5868375 L10.9085865,0 L12.9423907,0 Z M10.1690213,10.5868375 L9.05967352,10.5868375 L6.65608667,3.52894583 L8.13521704,0 L10.1690213,0 L10.1690213,10.5868375 Z"></path>
                    <polygon id="head-left" fill-rule="nonzero" points="9.05967352 10.5868375 1.10934778 7.61509362 0 2.97174385 6.84097797 3.52894583 9.24456482 10.5868375"></polygon>
                    <polygon id="head-right" fill-rule="nonzero" transform="translate(16.640217, 6.779291) scale(-1, 1) translate(-16.640217, -6.779291) " points="21.0776078 10.5868375 13.127282 7.61509362 12.0179343 2.97174385 19.0438035 3.52894583 21.2624991 10.5868375"></polygon>
                    <polygon id="ear-right" fill-rule="nonzero" points="14.7913037 2.97174385 18.3365209 2.60027587 16.0855428 0 13.4970646 0"></polygon>
                    <polygon id="ear-left" fill-rule="nonzero" transform="translate(5.160815, 1.485872) scale(-1, 1) translate(-5.160815, -1.485872) " points="4.03532591 2.97174385 7.58054315 2.60027587 5.32956499 0 2.74108684 0"></polygon>
                </g>
            </g>
        </g>
    </g>
</svg>