<svg xmlns="http://www.w3.org/2000/svg" xmlns:xlink="http://www.w3.org/1999/xlink" width="162" height="43" viewBox="0 0 162 43">
    <defs>
        <path id="prefix__a" d="M19.81 0L19.81 0 19.81 0 0.051 7.018 3.065 33.042 19.81 42.28 19.81 42.28 19.81 42.28 36.555 33.042 39.569 7.018z"/>
    </defs>
    <g fill="none" fill-rule="evenodd">
        <g fill-rule="nonzero">
            <path fill="#20272A" d="M3.626 18.402H0V.27h7.25c.664 0 1.305.087 1.923.26a7.337 7.337 0 011.724.734 7.356 7.356 0 012.602 2.61 7.33 7.33 0 01.731 1.733 6.99 6.99 0 01.26 1.921c0 .995-.191 1.933-.569 2.813a7.332 7.332 0 01-1.551 2.307 7.397 7.397 0 01-2.306 1.556 7.04 7.04 0 01-2.815.569H3.626v3.629zm0-14.502v7.257h3.623c.5 0 .964-.095 1.403-.284a3.629 3.629 0 001.926-1.935 3.53 3.53 0 00.286-1.41c0-.497-.096-.966-.286-1.41a3.625 3.625 0 00-.777-1.156 3.663 3.663 0 00-1.15-.778A3.486 3.486 0 007.25 3.9H3.626zM20.353 18.402h-3.627V.27h7.253c.661 0 1.304.087 1.922.26a7.36 7.36 0 011.723.734 7.323 7.323 0 011.462 1.138c.445.442.822.933 1.139 1.471a7.276 7.276 0 01.994 3.655c0 .623-.082 1.231-.239 1.82a7.371 7.371 0 01-.666 1.683 7.243 7.243 0 01-2.484 2.63l2.008 4.74h-3.851l-1.58-3.653-4.054.025v3.629zm0-14.502v7.257h3.625c.497 0 .961-.095 1.403-.284.435-.19.82-.449 1.148-.778.33-.33.59-.715.777-1.157.192-.442.284-.912.284-1.41 0-.497-.092-.966-.284-1.41a3.603 3.603 0 00-.777-1.156 3.719 3.719 0 00-1.148-.778 3.507 3.507 0 00-1.403-.284h-3.625zM37.079 18.402L33.453 18.402 33.453.27 37.079.27zM73.659 18.402L61.24 18.402 61.24.27 73.659.27 73.659 3.9 64.865 3.9 64.865 7.528 70.813 7.528 70.813 11.157 64.865 11.157 64.865 14.773 73.659 14.773zM54.726 0c-.564 0-.938.269-1.18.727l-4.099 7.662c-.108.215-.19.349-.297.349-.106 0-.187-.134-.295-.349l-4.1-7.662C44.516.269 44.14 0 43.577 0h-1.875c-.563 0-.964.349-.964.914v17.482h3.777V8.228c0-.188.081-.216.134-.216.081 0 .134.054.214.188l2.413 4.437c.187.322.455.457.805.457h2.141c.35 0 .618-.135.805-.457l2.41-4.437c.083-.134.136-.188.217-.188.053 0 .135.028.135.216V18.396h3.777V.94c0-.565-.4-.941-.966-.941h-1.873z" transform="translate(52 12)"/>
            <path fill="#DD0031" d="M91.654 18.438L87.773 18.438 80.784 6.478 80.784 18.438 77.157 18.438 77.157.27 81.037.27 88.027 12.242 88.027.27 91.654.27zM106.06 8.465v.02h-3.465v3.631h3.464v2.414a6.037 6.037 0 01-1.227.457c-.429.11-.872.166-1.327.166a5.5 5.5 0 01-2.23-.457 5.851 5.851 0 01-3.065-3.078 5.615 5.615 0 01-.455-2.255c0-.794.152-1.54.456-2.236a5.79 5.79 0 011.238-1.825c.522-.52 1.13-.93 1.826-1.235a5.503 5.503 0 012.23-.456c.792 0 1.546.158 2.263.475a6.079 6.079 0 011.895 1.311l1.896-3.167A9.29 9.29 0 00103.505 0c-.86 0-1.687.112-2.483.336a9.401 9.401 0 00-4.127 2.407 9.114 9.114 0 00-1.465 1.9 9.605 9.605 0 00-.942 2.236 9.121 9.121 0 00-.335 2.484c0 .861.111 1.693.335 2.495a9.54 9.54 0 00.942 2.249c.403.696.893 1.33 1.465 1.9a9.641 9.641 0 001.896 1.468 9.235 9.235 0 004.714 1.287 9.304 9.304 0 006.054-2.23V8.486h-3.482l-.018-.02z" transform="translate(52 12)"/>
        </g>
        <mask id="prefix__b" fill="#fff">
            <use xlink:href="#prefix__a"/>
        </mask>
        <use fill="#DD0031" fill-rule="nonzero" xlink:href="#prefix__a"/>
        <path fill="#C3002F" d="M19.81 0L19.81 4.693 19.81 4.672 19.81 26.087 19.81 26.087 19.81 42.28 19.81 42.28 36.555 33.042 39.569 7.018z" mask="url(#prefix__b)"/>
        <g>
            <path fill="#FFF" fill-rule="nonzero" d="M17.902 12.632L16.006 12.211 17.481 14.316 17.481 20.843 22.535 16.632 22.535 9.474 20.218 10.316z" transform="translate(7.7 7.42)"/>
            <path fill="#FFF" fill-rule="nonzero" d="M3.37 12.632L1.474 12.211 2.949 14.316 2.949 20.843 8.003 16.632 8.003 9.474 5.686 10.316z" transform="translate(7.7 7.42) matrix(-1 0 0 1 9.477 0)"/>
            <path fill="#FFF" d="M7.14 14.712L8.82 12.18 9.87 12.813 14.07 12.813 15.12 12.18 16.8 14.712 16.8 24.205 15.54 26.103 14.07 27.58 9.87 27.58 8.4 26.103 7.14 24.205z" transform="translate(7.7 7.42)"/>
            <g fill="#C3002F">
                <path d="M0.345 1.275L3.965 1.43 3.446 2.094 -0.174 1.938z" transform="translate(7.7 7.42) translate(13.479 18.316) rotate(-38 1.895 1.684)"/>
                <path d="M0.345 2.959L3.965 3.115 3.446 3.778 -0.174 3.623z" transform="translate(7.7 7.42) translate(13.479 18.316) rotate(-38 1.895 3.369)"/>
                <path d="M0.345 4.643L3.965 4.799 3.446 5.462 -0.174 5.307z" transform="translate(7.7 7.42) translate(13.479 18.316) rotate(-38 1.895 5.053)"/>
            </g>
            <g fill="#DD0031">
                <path d="M0.345 1.275L3.965 1.43 3.446 2.094 -0.174 1.938z" transform="translate(7.7 7.42) translate(6.74 18.316) scale(-1 1) rotate(-38 0 7.19)"/>
                <path d="M0.345 2.959L3.965 3.115 3.446 3.778 -0.174 3.623z" transform="translate(7.7 7.42) translate(6.74 18.316) scale(-1 1) rotate(-38 0 8.873)"/>
                <path d="M0.345 4.643L3.965 4.799 3.446 5.462 -0.174 5.307z" transform="translate(7.7 7.42) translate(6.74 18.316) scale(-1 1) rotate(-38 0 10.558)"/>
            </g>
            <path fill="#FFF" fill-rule="nonzero" d="M17.481 24.843L20.218 22.106 20.218 19.369 17.481 21.685z" transform="translate(7.7 7.42)"/>
            <path fill="#FFF" fill-rule="nonzero" d="M3.791 24.843L6.529 22.106 6.529 19.369 3.791 21.685z" transform="translate(7.7 7.42) matrix(-1 0 0 1 10.32 0)"/>
            <path fill="#FFF" d="M13.268 0v5.263l.843-.42V0h.632l1.684 4-2.527 8h-1.474V0h.842zm-3.37 4.842l.843.421V0h.842v12H10.32L7.582 4l1.685-4h.632v4.842z" transform="translate(7.7 7.42)"/>
            <path fill="#FFF" fill-rule="nonzero" d="M10.32 12L1.264 8.632 0 3.369 7.793 4 10.53 12z" transform="translate(7.7 7.42)"/>
            <path fill="#FFF" fill-rule="nonzero" d="M24.009 12L14.953 8.632 13.69 3.369 21.693 4 24.22 12z" transform="translate(7.7 7.42) matrix(-1 0 0 1 37.91 0)"/>
            <path fill="#FFF" fill-rule="nonzero" d="M16.849 3.369L21.271 2.947 18.323 0 15.374 0z" transform="translate(7.7 7.42)"/>
            <path fill="#FFF" fill-rule="nonzero" d="M4.212 3.369L8.635 2.947 5.686 0 2.738 0z" transform="translate(7.7 7.42) matrix(-1 0 0 1 11.373 0)"/>
        </g>
    </g>
</svg>
